<?xml version="1.0" standalone="no"?>
<!DOCTYPE svg PUBLIC "-//W3C//DTD SVG 20010904//EN"
 "http://www.w3.org/TR/2001/REC-SVG-20010904/DTD/svg10.dtd">
<svg version="1.0" xmlns="http://www.w3.org/2000/svg"
 width="700.000000pt" height="700.000000pt" viewBox="0 0 700.000000 700.000000"
 preserveAspectRatio="xMidYMid meet">
<metadata>
Created by potrace 1.14, written by Peter Selinger 2001-2017
</metadata>
<g transform="translate(0.000000,700.000000) scale(0.100000,-0.100000)"
fill="#000000" stroke="none">
<path d="M5238 6566 c-1 -2 -48 -6 -103 -10 -55 -3 -111 -8 -125 -11 -14 -3
-50 -10 -80 -16 -94 -18 -286 -87 -378 -136 -243 -129 -451 -316 -589 -532
-92 -143 -186 -371 -212 -517 -6 -32 -13 -68 -15 -79 -13 -66 -17 -227 -17
-642 l-1 -468 -1371 0 -1372 -1 -85 -22 c-260 -70 -466 -234 -581 -464 -29
-59 -65 -166 -74 -219 -4 -24 -9 -53 -11 -64 -9 -43 -4 -2153 5 -2206 66 -394
365 -681 766 -735 65 -9 3181 -9 3260 -1 379 42 691 336 764 719 6 34 10 456
10 1143 l0 1090 -25 95 c-96 374 -401 631 -789 664 -33 3 -60 5 -60 5 -5 8 4
971 9 1006 35 254 135 456 315 635 171 171 342 262 574 306 117 22 301 22 407
-2 14 -3 36 -7 50 -10 87 -17 242 -85 340 -150 76 -49 220 -184 278 -260 87
-114 160 -279 193 -439 20 -95 21 -133 23 -730 2 -687 1 -665 60 -727 56 -58
142 -80 223 -57 59 16 127 81 142 135 13 46 14 1256 1 1349 -16 116 -21 141
-52 245 -108 370 -351 685 -682 885 -166 100 -306 151 -550 201 -11 2 -65 6
-120 10 -56 3 -106 7 -113 9 -6 2 -13 2 -15 1z m-984 -2860 c128 -30 231 -111
289 -228 20 -40 40 -98 44 -128 5 -30 8 -514 7 -1075 -1 -1011 -1 -1022 -22
-1091 -45 -148 -177 -270 -325 -301 -18 -3 -741 -7 -1607 -8 -1703 -1 -1651
-3 -1753 53 -112 60 -208 195 -223 313 -4 30 -7 511 -8 1069 0 1098 -1 1082
53 1180 33 59 125 151 176 175 118 56 0 52 1728 53 1223 0 1600 -3 1641 -12z"/>
</g>
</svg>
